<mxfile host="Electron" agent="Mozilla/5.0 (Windows NT 10.0; Win64; x64) AppleWebKit/537.36 (KHTML, like Gecko) draw.io/24.7.8 Chrome/128.0.6613.36 Electron/32.0.1 Safari/537.36" version="24.7.8">
  <diagram name="Seite-1" id="uDi73iDS1Jls_HMcUIp8">
    <mxGraphModel dx="634" dy="-1515" grid="1" gridSize="10" guides="1" tooltips="1" connect="1" arrows="1" fold="1" page="1" pageScale="1" pageWidth="827" pageHeight="1169" math="0" shadow="0">
      <root>
        <mxCell id="0" />
        <mxCell id="1" parent="0" />
        <mxCell id="YdLm4rfifH2N3zmE9KXH-1" value="ChoosePiece" style="shape=umlFrame;whiteSpace=wrap;html=1;pointerEvents=0;recursiveResize=0;container=1;collapsible=0;width=160;" parent="1" vertex="1">
          <mxGeometry x="1280" y="2400" width="920" height="480" as="geometry" />
        </mxCell>
        <mxCell id="jArMkAFE7bcjeZm6GePY-1" style="edgeStyle=orthogonalEdgeStyle;rounded=0;orthogonalLoop=1;jettySize=auto;html=1;exitX=0.5;exitY=1;exitDx=0;exitDy=0;entryX=0.5;entryY=0;entryDx=0;entryDy=0;" parent="YdLm4rfifH2N3zmE9KXH-1" source="YdLm4rfifH2N3zmE9KXH-96" target="YdLm4rfifH2N3zmE9KXH-150" edge="1">
          <mxGeometry relative="1" as="geometry" />
        </mxCell>
        <mxCell id="jArMkAFE7bcjeZm6GePY-3" style="edgeStyle=orthogonalEdgeStyle;rounded=0;orthogonalLoop=1;jettySize=auto;html=1;exitX=1;exitY=0.5;exitDx=0;exitDy=0;entryX=0;entryY=0.5;entryDx=0;entryDy=0;" parent="YdLm4rfifH2N3zmE9KXH-1" source="YdLm4rfifH2N3zmE9KXH-96" target="YdLm4rfifH2N3zmE9KXH-156" edge="1">
          <mxGeometry relative="1" as="geometry" />
        </mxCell>
        <mxCell id="jArMkAFE7bcjeZm6GePY-5" style="edgeStyle=orthogonalEdgeStyle;rounded=0;orthogonalLoop=1;jettySize=auto;html=1;exitX=0.5;exitY=0;exitDx=0;exitDy=0;entryX=0.5;entryY=1;entryDx=0;entryDy=0;" parent="YdLm4rfifH2N3zmE9KXH-1" source="YdLm4rfifH2N3zmE9KXH-96" target="YdLm4rfifH2N3zmE9KXH-114" edge="1">
          <mxGeometry relative="1" as="geometry" />
        </mxCell>
        <mxCell id="zsCUYr5a9rAFgDqLOojt-1" style="edgeStyle=orthogonalEdgeStyle;rounded=0;orthogonalLoop=1;jettySize=auto;html=1;exitX=0.75;exitY=0;exitDx=0;exitDy=0;entryX=0;entryY=0;entryDx=0;entryDy=0;" edge="1" parent="YdLm4rfifH2N3zmE9KXH-1" source="YdLm4rfifH2N3zmE9KXH-96" target="YdLm4rfifH2N3zmE9KXH-124">
          <mxGeometry relative="1" as="geometry">
            <Array as="points">
              <mxPoint x="210" y="230" />
              <mxPoint x="440" y="230" />
              <mxPoint x="440" y="210" />
              <mxPoint x="866" y="210" />
            </Array>
          </mxGeometry>
        </mxCell>
        <mxCell id="YdLm4rfifH2N3zmE9KXH-96" value="NoPiece" style="rounded=1;whiteSpace=wrap;html=1;" parent="YdLm4rfifH2N3zmE9KXH-1" vertex="1">
          <mxGeometry x="120" y="280" width="120" height="40" as="geometry" />
        </mxCell>
        <mxCell id="YdLm4rfifH2N3zmE9KXH-97" value="" style="ellipse;whiteSpace=wrap;html=1;aspect=fixed;fillColor=#000000;" parent="YdLm4rfifH2N3zmE9KXH-1" vertex="1">
          <mxGeometry x="40" y="280" width="40" height="40" as="geometry" />
        </mxCell>
        <mxCell id="YdLm4rfifH2N3zmE9KXH-98" style="edgeStyle=orthogonalEdgeStyle;rounded=0;orthogonalLoop=1;jettySize=auto;html=1;entryX=0;entryY=0.5;entryDx=0;entryDy=0;" parent="YdLm4rfifH2N3zmE9KXH-1" source="YdLm4rfifH2N3zmE9KXH-97" target="YdLm4rfifH2N3zmE9KXH-96" edge="1">
          <mxGeometry relative="1" as="geometry">
            <mxPoint x="300" y="390" as="targetPoint" />
          </mxGeometry>
        </mxCell>
        <mxCell id="YdLm4rfifH2N3zmE9KXH-126" style="edgeStyle=orthogonalEdgeStyle;rounded=0;orthogonalLoop=1;jettySize=auto;html=1;exitX=1;exitY=0.5;exitDx=0;exitDy=0;entryX=0;entryY=0.5;entryDx=0;entryDy=0;" parent="YdLm4rfifH2N3zmE9KXH-1" source="YdLm4rfifH2N3zmE9KXH-114" target="YdLm4rfifH2N3zmE9KXH-123" edge="1">
          <mxGeometry relative="1" as="geometry" />
        </mxCell>
        <mxCell id="YdLm4rfifH2N3zmE9KXH-193" value="confirmPiece(Piece)" style="edgeLabel;html=1;align=center;verticalAlign=middle;resizable=0;points=[];" parent="YdLm4rfifH2N3zmE9KXH-126" vertex="1" connectable="0">
          <mxGeometry x="0.0125" y="-1" relative="1" as="geometry">
            <mxPoint x="10" y="-21" as="offset" />
          </mxGeometry>
        </mxCell>
        <mxCell id="YdLm4rfifH2N3zmE9KXH-114" value="WaitigPiece" style="rounded=1;whiteSpace=wrap;html=1;" parent="YdLm4rfifH2N3zmE9KXH-1" vertex="1">
          <mxGeometry x="120" y="160" width="120" height="40" as="geometry" />
        </mxCell>
        <mxCell id="YdLm4rfifH2N3zmE9KXH-122" style="edgeStyle=orthogonalEdgeStyle;rounded=1;orthogonalLoop=1;jettySize=auto;html=1;exitX=0.25;exitY=0;exitDx=0;exitDy=0;entryX=0.75;entryY=0;entryDx=0;entryDy=0;curved=0;" parent="YdLm4rfifH2N3zmE9KXH-1" source="YdLm4rfifH2N3zmE9KXH-114" target="YdLm4rfifH2N3zmE9KXH-114" edge="1">
          <mxGeometry relative="1" as="geometry">
            <Array as="points">
              <mxPoint x="150" y="120" />
              <mxPoint x="210" y="120" />
            </Array>
          </mxGeometry>
        </mxCell>
        <mxCell id="YdLm4rfifH2N3zmE9KXH-192" value="selectPiece()&lt;br&gt;deselectPiece()" style="edgeLabel;html=1;align=center;verticalAlign=middle;resizable=0;points=[];" parent="YdLm4rfifH2N3zmE9KXH-122" vertex="1" connectable="0">
          <mxGeometry x="-0.09" y="2" relative="1" as="geometry">
            <mxPoint x="4" y="-18" as="offset" />
          </mxGeometry>
        </mxCell>
        <mxCell id="YdLm4rfifH2N3zmE9KXH-127" style="edgeStyle=orthogonalEdgeStyle;rounded=0;orthogonalLoop=1;jettySize=auto;html=1;exitX=1;exitY=0.5;exitDx=0;exitDy=0;entryX=0.5;entryY=0;entryDx=0;entryDy=0;" parent="YdLm4rfifH2N3zmE9KXH-1" source="YdLm4rfifH2N3zmE9KXH-123" target="YdLm4rfifH2N3zmE9KXH-124" edge="1">
          <mxGeometry relative="1" as="geometry">
            <mxPoint x="450" y="130" as="targetPoint" />
          </mxGeometry>
        </mxCell>
        <mxCell id="YdLm4rfifH2N3zmE9KXH-194" value="[verifyPiece(Piece)]" style="edgeLabel;html=1;align=center;verticalAlign=middle;resizable=0;points=[];" parent="YdLm4rfifH2N3zmE9KXH-127" vertex="1" connectable="0">
          <mxGeometry x="-0.2532" y="1" relative="1" as="geometry">
            <mxPoint x="-175" y="-14" as="offset" />
          </mxGeometry>
        </mxCell>
        <mxCell id="YdLm4rfifH2N3zmE9KXH-128" style="edgeStyle=orthogonalEdgeStyle;rounded=1;orthogonalLoop=1;jettySize=auto;html=1;exitX=0.5;exitY=1;exitDx=0;exitDy=0;entryX=0.75;entryY=1;entryDx=0;entryDy=0;curved=0;" parent="YdLm4rfifH2N3zmE9KXH-1" source="YdLm4rfifH2N3zmE9KXH-123" target="YdLm4rfifH2N3zmE9KXH-114" edge="1">
          <mxGeometry relative="1" as="geometry" />
        </mxCell>
        <mxCell id="YdLm4rfifH2N3zmE9KXH-195" value="[else]" style="edgeLabel;html=1;align=center;verticalAlign=middle;resizable=0;points=[];" parent="YdLm4rfifH2N3zmE9KXH-128" vertex="1" connectable="0">
          <mxGeometry x="-0.8443" y="3" relative="1" as="geometry">
            <mxPoint x="18" as="offset" />
          </mxGeometry>
        </mxCell>
        <mxCell id="YdLm4rfifH2N3zmE9KXH-123" value="" style="rhombus;whiteSpace=wrap;html=1;" parent="YdLm4rfifH2N3zmE9KXH-1" vertex="1">
          <mxGeometry x="340" y="165" width="41" height="30" as="geometry" />
        </mxCell>
        <mxCell id="YdLm4rfifH2N3zmE9KXH-124" value="" style="ellipse;whiteSpace=wrap;html=1;aspect=fixed;" parent="YdLm4rfifH2N3zmE9KXH-1" vertex="1">
          <mxGeometry x="860" y="280" width="40" height="40" as="geometry" />
        </mxCell>
        <mxCell id="YdLm4rfifH2N3zmE9KXH-125" value="" style="ellipse;whiteSpace=wrap;html=1;aspect=fixed;fillColor=#000000;" parent="YdLm4rfifH2N3zmE9KXH-1" vertex="1">
          <mxGeometry x="866.4099999999999" y="286.40999999999985" width="27.18" height="27.18" as="geometry" />
        </mxCell>
        <mxCell id="YdLm4rfifH2N3zmE9KXH-160" style="edgeStyle=orthogonalEdgeStyle;rounded=0;orthogonalLoop=1;jettySize=auto;html=1;exitX=1;exitY=0.5;exitDx=0;exitDy=0;entryX=0;entryY=0.5;entryDx=0;entryDy=0;" parent="YdLm4rfifH2N3zmE9KXH-1" source="YdLm4rfifH2N3zmE9KXH-150" target="YdLm4rfifH2N3zmE9KXH-159" edge="1">
          <mxGeometry relative="1" as="geometry" />
        </mxCell>
        <mxCell id="YdLm4rfifH2N3zmE9KXH-205" value="confirmPiece(Piece)" style="edgeLabel;html=1;align=center;verticalAlign=middle;resizable=0;points=[];" parent="YdLm4rfifH2N3zmE9KXH-160" vertex="1" connectable="0">
          <mxGeometry x="-0.023" y="-4" relative="1" as="geometry">
            <mxPoint x="3" y="11" as="offset" />
          </mxGeometry>
        </mxCell>
        <mxCell id="YdLm4rfifH2N3zmE9KXH-150" value="SelectPiece" style="rounded=1;whiteSpace=wrap;html=1;" parent="YdLm4rfifH2N3zmE9KXH-1" vertex="1">
          <mxGeometry x="120" y="375" width="120" height="40" as="geometry" />
        </mxCell>
        <mxCell id="YdLm4rfifH2N3zmE9KXH-166" style="edgeStyle=orthogonalEdgeStyle;rounded=0;orthogonalLoop=1;jettySize=auto;html=1;exitX=1;exitY=0.5;exitDx=0;exitDy=0;entryX=0;entryY=0.5;entryDx=0;entryDy=0;" parent="YdLm4rfifH2N3zmE9KXH-1" source="YdLm4rfifH2N3zmE9KXH-156" target="YdLm4rfifH2N3zmE9KXH-165" edge="1">
          <mxGeometry relative="1" as="geometry" />
        </mxCell>
        <mxCell id="YdLm4rfifH2N3zmE9KXH-186" value="confirmPiece(Piece)" style="edgeLabel;html=1;align=center;verticalAlign=middle;resizable=0;points=[];" parent="YdLm4rfifH2N3zmE9KXH-166" vertex="1" connectable="0">
          <mxGeometry x="-0.0143" y="4" relative="1" as="geometry">
            <mxPoint y="-11" as="offset" />
          </mxGeometry>
        </mxCell>
        <mxCell id="YdLm4rfifH2N3zmE9KXH-156" value="StartPiece" style="rounded=1;whiteSpace=wrap;html=1;" parent="YdLm4rfifH2N3zmE9KXH-1" vertex="1">
          <mxGeometry x="460" y="280" width="120" height="40" as="geometry" />
        </mxCell>
        <mxCell id="YdLm4rfifH2N3zmE9KXH-161" style="edgeStyle=orthogonalEdgeStyle;rounded=1;orthogonalLoop=1;jettySize=auto;html=1;exitX=0.5;exitY=0;exitDx=0;exitDy=0;entryX=0.75;entryY=0;entryDx=0;entryDy=0;curved=0;" parent="YdLm4rfifH2N3zmE9KXH-1" source="YdLm4rfifH2N3zmE9KXH-159" target="YdLm4rfifH2N3zmE9KXH-150" edge="1">
          <mxGeometry relative="1" as="geometry" />
        </mxCell>
        <mxCell id="YdLm4rfifH2N3zmE9KXH-206" value="[else]" style="edgeLabel;html=1;align=center;verticalAlign=middle;resizable=0;points=[];" parent="YdLm4rfifH2N3zmE9KXH-161" vertex="1" connectable="0">
          <mxGeometry x="-0.8151" y="-1" relative="1" as="geometry">
            <mxPoint x="16" y="4" as="offset" />
          </mxGeometry>
        </mxCell>
        <mxCell id="YdLm4rfifH2N3zmE9KXH-163" style="edgeStyle=orthogonalEdgeStyle;rounded=1;orthogonalLoop=1;jettySize=auto;html=1;exitX=1;exitY=0.5;exitDx=0;exitDy=0;entryX=0.5;entryY=1;entryDx=0;entryDy=0;curved=0;" parent="YdLm4rfifH2N3zmE9KXH-1" source="YdLm4rfifH2N3zmE9KXH-159" target="YdLm4rfifH2N3zmE9KXH-124" edge="1">
          <mxGeometry relative="1" as="geometry" />
        </mxCell>
        <mxCell id="YdLm4rfifH2N3zmE9KXH-207" value="[verifyPiece(Piece)]" style="edgeLabel;html=1;align=center;verticalAlign=middle;resizable=0;points=[];" parent="YdLm4rfifH2N3zmE9KXH-163" vertex="1" connectable="0">
          <mxGeometry x="-0.884" y="-1" relative="1" as="geometry">
            <mxPoint x="17" y="14" as="offset" />
          </mxGeometry>
        </mxCell>
        <mxCell id="YdLm4rfifH2N3zmE9KXH-159" value="" style="rhombus;whiteSpace=wrap;html=1;" parent="YdLm4rfifH2N3zmE9KXH-1" vertex="1">
          <mxGeometry x="360" y="380" width="41" height="30" as="geometry" />
        </mxCell>
        <mxCell id="YdLm4rfifH2N3zmE9KXH-162" style="edgeStyle=orthogonalEdgeStyle;rounded=1;orthogonalLoop=1;jettySize=auto;html=1;exitX=0.25;exitY=1;exitDx=0;exitDy=0;entryX=0.75;entryY=1;entryDx=0;entryDy=0;curved=0;" parent="YdLm4rfifH2N3zmE9KXH-1" source="YdLm4rfifH2N3zmE9KXH-150" target="YdLm4rfifH2N3zmE9KXH-150" edge="1">
          <mxGeometry relative="1" as="geometry" />
        </mxCell>
        <mxCell id="YdLm4rfifH2N3zmE9KXH-208" value="selectPiece()&lt;br&gt;deselectPiece()" style="edgeLabel;html=1;align=center;verticalAlign=middle;resizable=0;points=[];" parent="YdLm4rfifH2N3zmE9KXH-162" vertex="1" connectable="0">
          <mxGeometry x="0.2933" y="2" relative="1" as="geometry">
            <mxPoint x="-15" y="22" as="offset" />
          </mxGeometry>
        </mxCell>
        <mxCell id="YdLm4rfifH2N3zmE9KXH-167" style="edgeStyle=orthogonalEdgeStyle;rounded=1;orthogonalLoop=1;jettySize=auto;html=1;exitX=1;exitY=0.5;exitDx=0;exitDy=0;entryX=0;entryY=0.5;entryDx=0;entryDy=0;curved=0;" parent="YdLm4rfifH2N3zmE9KXH-1" source="YdLm4rfifH2N3zmE9KXH-165" target="YdLm4rfifH2N3zmE9KXH-124" edge="1">
          <mxGeometry relative="1" as="geometry" />
        </mxCell>
        <mxCell id="YdLm4rfifH2N3zmE9KXH-187" value="[verifyPiece(Piece)]" style="edgeLabel;html=1;align=center;verticalAlign=middle;resizable=0;points=[];" parent="YdLm4rfifH2N3zmE9KXH-167" vertex="1" connectable="0">
          <mxGeometry x="-0.4725" y="1" relative="1" as="geometry">
            <mxPoint x="16" y="-14" as="offset" />
          </mxGeometry>
        </mxCell>
        <mxCell id="YdLm4rfifH2N3zmE9KXH-168" style="edgeStyle=orthogonalEdgeStyle;rounded=1;orthogonalLoop=1;jettySize=auto;html=1;exitX=0.5;exitY=1;exitDx=0;exitDy=0;entryX=0.5;entryY=1;entryDx=0;entryDy=0;curved=0;" parent="YdLm4rfifH2N3zmE9KXH-1" source="YdLm4rfifH2N3zmE9KXH-165" target="YdLm4rfifH2N3zmE9KXH-156" edge="1">
          <mxGeometry relative="1" as="geometry" />
        </mxCell>
        <mxCell id="YdLm4rfifH2N3zmE9KXH-188" value="[else]" style="edgeLabel;html=1;align=center;verticalAlign=middle;resizable=0;points=[];" parent="YdLm4rfifH2N3zmE9KXH-168" vertex="1" connectable="0">
          <mxGeometry x="-0.8814" y="-2" relative="1" as="geometry">
            <mxPoint x="23" as="offset" />
          </mxGeometry>
        </mxCell>
        <mxCell id="YdLm4rfifH2N3zmE9KXH-165" value="" style="rhombus;whiteSpace=wrap;html=1;" parent="YdLm4rfifH2N3zmE9KXH-1" vertex="1">
          <mxGeometry x="699" y="285" width="41" height="30" as="geometry" />
        </mxCell>
        <mxCell id="YdLm4rfifH2N3zmE9KXH-169" style="edgeStyle=orthogonalEdgeStyle;rounded=1;orthogonalLoop=1;jettySize=auto;html=1;exitX=0.25;exitY=0;exitDx=0;exitDy=0;entryX=0.75;entryY=0;entryDx=0;entryDy=0;curved=0;" parent="YdLm4rfifH2N3zmE9KXH-1" source="YdLm4rfifH2N3zmE9KXH-156" target="YdLm4rfifH2N3zmE9KXH-156" edge="1">
          <mxGeometry relative="1" as="geometry">
            <Array as="points">
              <mxPoint x="490" y="260" />
              <mxPoint x="550" y="260" />
            </Array>
          </mxGeometry>
        </mxCell>
        <mxCell id="YdLm4rfifH2N3zmE9KXH-200" value="selectPiece()&lt;br&gt;deselectPiece()" style="edgeLabel;html=1;align=center;verticalAlign=middle;resizable=0;points=[];" parent="YdLm4rfifH2N3zmE9KXH-169" vertex="1" connectable="0">
          <mxGeometry x="-0.04" y="-4" relative="1" as="geometry">
            <mxPoint x="2" y="-24" as="offset" />
          </mxGeometry>
        </mxCell>
        <mxCell id="jArMkAFE7bcjeZm6GePY-2" value="receivedSelectPiece(msg)" style="text;html=1;align=center;verticalAlign=middle;resizable=0;points=[];autosize=1;strokeColor=none;fillColor=none;" parent="YdLm4rfifH2N3zmE9KXH-1" vertex="1">
          <mxGeometry x="180" y="320" width="160" height="30" as="geometry" />
        </mxCell>
        <mxCell id="jArMkAFE7bcjeZm6GePY-4" value="receivedSelectStartPiece(msg)" style="text;html=1;align=center;verticalAlign=middle;resizable=0;points=[];autosize=1;strokeColor=none;fillColor=none;" parent="YdLm4rfifH2N3zmE9KXH-1" vertex="1">
          <mxGeometry x="240" y="268" width="190" height="30" as="geometry" />
        </mxCell>
        <mxCell id="jArMkAFE7bcjeZm6GePY-6" value="receivedWaitingPiece(msg)" style="text;html=1;align=center;verticalAlign=middle;resizable=0;points=[];autosize=1;strokeColor=none;fillColor=none;" parent="YdLm4rfifH2N3zmE9KXH-1" vertex="1">
          <mxGeometry x="10" y="210" width="170" height="30" as="geometry" />
        </mxCell>
        <mxCell id="zsCUYr5a9rAFgDqLOojt-2" value="receiveNoTurn(msg)" style="text;html=1;align=center;verticalAlign=middle;resizable=0;points=[];autosize=1;strokeColor=none;fillColor=none;" vertex="1" parent="YdLm4rfifH2N3zmE9KXH-1">
          <mxGeometry x="210" y="230" width="130" height="30" as="geometry" />
        </mxCell>
      </root>
    </mxGraphModel>
  </diagram>
</mxfile>
